<svg xmlns="http://www.w3.org/2000/svg" xmlns:xlink="http://www.w3.org/1999/xlink" aria-hidden="true" role="img" class="iconify iconify--logos" width="35.93" height="32" preserveAspectRatio="xMidYMid meet" viewBox="0 0 256 228"><path fill="#00D8FF" d="M210.483 73.824a171.49 171.49 0 0 0-8.24-2.597c.465-1.9.893-3.777 1.273-5.621c6.238-30.281 2.16-54.676-11.769-62.708c-13.355-7.7-35.196.329-57.254 19.526a171.23 171.23 0 0 0-6.375 5.848a155.866 155.866 0 0 0-4.241-3.917C100.759 3.829 77.587-4.822 63.673 3.233C50.33 10.957 46.379 33.89 51.995 62.588a170.974 170.974 0 0 0 1.892 8.48c-3.28.932-6.445 1.924-9.474 2.98C17.309 83.498 0 98.307 0 113.668c0 15.865 18.582 31.778 46.812 41.427a145.52 145.52 0 0 0 6.921 2.165a167.467 167.467 0 0 0-2.01 9.138c-5.354 28.2-1.173 50.591 12.134 58.266c13.744 7.926 36.812-.22 59.273-19.855a145.567 145.567 0 0 0 5.342-4.923a168.064 168.064 0 0 0 6.92 6.314c21.758 18.722 43.246 26.282 56.54 18.586c13.731-7.949 18.194-32.003 12.4-61.268a145.016 145.016 0 0 0-1.558-7.18a171.525 171.525 0 0 0 8.254-2.61c28.234-9.653 46.82-25.57 46.82-41.44c0-15.38-17.476-30.573-45.507-40.116Zm-6.076 72.407a145.842 145.842 0 0 1-7.155 2.26c.547-2.23 1.05-4.526 1.51-6.878c5.102-25.998 1.768-46.893-9.62-53.216c-11.003-6.12-28.998.27-47.15 15.97a145.23 145.23 0 0 1-5.25 4.82a128.52 128.52 0 0 1-3.495-3.23c-18.602-17.35-35.78-24.33-46.22-19.016c-10.063 5.08-13.55 22.35-9.57 44.13a143.12 143.12 0 0 1 1.56 6.99c-2.7.77-5.3 1.59-7.8 2.46C23.342 100.2 9.87 111.217 9.87 120.327c0 9.624 14.234 19.776 35.888 26.25a120.02 120.02 0 0 1 5.7 1.79a143.74 143.74 0 0 1-1.66 7.54c-4.41 23.22-0.97 41.72 10 47.75c11.33 6.53 30.34 0.18 48.87-16.37a120.12 120.12 0 0 1 4.4-4.06a128.8 128.8 0 0 1 5.7 5.21c18.93 16.3 37.64 22.9 48.6 16.88c11.32-6.36 15.01-26.38 10.22-50.47a120.4 120.4 0 0 1-1.28-5.92a145.8 145.8 0 0 1 6.8-2.15c21.66-6.48 35.9-16.64 35.9-26.27c0-8.72-12.6-19.18-33.64-25.47Z"></path></svg>

